<svg width="40" height="40" viewBox="0 0 40 40" fill="none" xmlns="http://www.w3.org/2000/svg">
<circle cx="20" cy="20" r="19.5" fill="#3B3937" stroke="#505050"/>
<g clip-path="url(#clip0_345_1175)">
<path d="M28.5856 15.6711C28.7122 15.2763 28.5856 15 27.9947 15H26.0251C25.5186 15 25.2935 15.25 25.1669 15.5263C25.1669 15.5263 24.1681 17.8158 22.7472 19.2895C22.2829 19.7237 22.0859 19.8553 21.8327 19.8553C21.7061 19.8553 21.5232 19.7237 21.5232 19.3289V15.6711C21.5232 15.1974 21.3825 15 20.9605 15H17.8654C17.5559 15 17.3589 15.2237 17.3589 15.4211C17.3589 15.8684 18.0624 15.9737 18.1468 17.2105V19.921C18.1468 20.5132 18.0342 20.6184 17.781 20.6184C17.1198 20.6184 15.4878 18.3289 14.5312 15.6974C14.3342 15.2105 14.1513 15 13.6449 15H11.6753C11.1125 15 11 15.25 11 15.5263C11 16.0132 11.6612 18.4342 14.1091 21.6316C15.7411 23.8158 18.0342 25 20.1164 25C21.3685 25 21.5232 24.7368 21.5232 24.2895V22.6316C21.5232 22.1053 21.6358 22 22.0437 22C22.3392 22 22.8316 22.1316 23.9993 23.1842C25.3358 24.4342 25.5608 25 26.3065 25H28.2761C28.8388 25 29.1202 24.7368 28.9513 24.2237C28.7685 23.7105 28.1354 22.9605 27.2913 22.0658C26.827 21.5526 26.1377 21.0132 25.9407 20.7368C25.6453 20.3816 25.7297 20.2237 25.9407 19.921C25.9407 19.9079 28.3464 16.75 28.5856 15.6711Z" fill="white" stroke="white" stroke-width="0.5"/>
</g>
<defs>
<clipPath id="clip0_345_1175">
<rect width="22" height="22" fill="white" transform="translate(9 9)"/>
</clipPath>
</defs>
</svg>
