<svg width="40" height="40" viewBox="0 0 40 40" fill="none" xmlns="http://www.w3.org/2000/svg">
<circle cx="20" cy="20" r="19.5" fill="#3B3937" stroke="#505050"/>
<path fill-rule="evenodd" clip-rule="evenodd" d="M10.233 19.2099C15.4824 16.701 18.9828 15.047 20.7343 14.2479C25.735 11.9662 26.7741 11.5699 27.4514 11.5568C27.6003 11.5539 27.9334 11.5944 28.1491 11.7864C28.3313 11.9486 28.3814 12.1676 28.4054 12.3214C28.4294 12.4751 28.4593 12.8253 28.4355 13.099C28.1645 16.2224 26.992 23.8022 26.3954 27.3005C26.143 28.7807 25.646 29.277 25.1648 29.3256C24.1191 29.4312 23.3251 28.5675 22.3123 27.8392C20.7274 26.6996 19.8321 25.9902 18.2937 24.8781C16.5159 23.5929 17.6684 22.8866 18.6815 21.7322C18.9467 21.4301 23.5541 16.8329 23.6432 16.4159C23.6544 16.3638 23.6647 16.1693 23.5595 16.0667C23.4542 15.964 23.2988 15.9991 23.1866 16.0271C23.0277 16.0666 20.4959 17.9023 15.5912 21.5342C14.8726 22.0755 14.2216 22.3393 13.6384 22.3254C12.9955 22.3102 11.7587 21.9267 10.8393 21.5988C9.71163 21.1967 8.81537 20.9841 8.89341 20.3012C8.93406 19.9455 9.38059 19.5817 10.233 19.2099Z" fill="white"/>
</svg>
