<svg width="40" height="40" viewBox="0 0 40 40" fill="none" xmlns="http://www.w3.org/2000/svg">
<circle cx="20" cy="20" r="19.5" fill="#3B3937" stroke="#505050"/>
<path d="M21.2684 10.8267C19.0529 10.5219 16.802 11.029 14.9312 12.2544C13.0604 13.4798 11.6962 15.3406 11.0904 17.4934C10.4846 19.6461 10.6782 21.9454 11.6354 23.9665C12.5926 25.9877 14.2487 27.5943 16.298 28.4896C16.2426 27.7783 16.2935 27.0628 16.4489 26.3665C16.6202 25.5896 17.6489 21.3081 17.6489 21.3081C17.4441 20.849 17.3417 20.3507 17.3489 19.848C17.3489 18.473 18.1425 17.447 19.1295 17.447C19.3068 17.4445 19.4826 17.4801 19.6449 17.5515C19.8073 17.6229 19.9523 17.7285 20.0702 17.8609C20.1881 17.9934 20.2761 18.1497 20.3282 18.3192C20.3803 18.4888 20.3952 18.6675 20.3721 18.8433C20.3721 19.6767 19.8369 20.9378 19.5573 22.1211C19.502 22.3381 19.4985 22.5651 19.547 22.7837C19.5956 23.0023 19.6948 23.2065 19.8367 23.3798C19.9786 23.553 20.1592 23.6905 20.364 23.7812C20.5687 23.8718 20.792 23.9131 21.0156 23.9017C22.773 23.9017 23.9508 21.6507 23.9508 18.9933C23.9508 16.9563 22.6017 15.4304 20.1147 15.4304C19.5197 15.4072 18.9261 15.5053 18.3702 15.7186C17.8142 15.9318 17.3074 16.2559 16.8805 16.671C16.4536 17.0861 16.1155 17.5837 15.8867 18.1335C15.658 18.6833 15.5434 19.2738 15.5499 19.8693C15.5234 20.5297 15.7364 21.1776 16.1499 21.6933C16.2271 21.751 16.2835 21.8322 16.3106 21.9247C16.3376 22.0173 16.3339 22.1161 16.2999 22.2063C16.2573 22.3767 16.1499 22.7831 16.1073 22.9322C16.0984 22.9828 16.0778 23.0305 16.0471 23.0717C16.0164 23.1128 15.9765 23.1462 15.9305 23.169C15.8846 23.1919 15.8339 23.2037 15.7826 23.2034C15.7313 23.2031 15.6807 23.1908 15.6351 23.1674C14.3536 22.6544 13.7499 21.2443 13.7499 19.6341C13.7499 16.998 15.9573 13.8424 20.3739 13.8424C23.8888 13.8424 26.2258 16.4137 26.2258 19.1637C26.2258 22.7831 24.2101 25.5044 21.2314 25.5044C20.7862 25.5187 20.3446 25.4204 19.9474 25.2188C19.5502 25.0171 19.2103 24.7186 18.9591 24.3507C18.9591 24.3507 18.4239 26.4952 18.3184 26.9007C18.1029 27.6014 17.785 28.2663 17.3749 28.8739C18.2295 29.1331 19.1175 29.2628 20.0101 29.2591C21.2263 29.26 22.4309 29.0211 23.5547 28.5559C24.6785 28.0907 25.6995 27.4084 26.5592 26.5481C27.4189 25.6877 28.1005 24.6663 28.5649 23.5421C29.0293 22.418 29.2674 21.2133 29.2656 19.997C29.2645 17.7609 28.4543 15.6007 26.9847 13.9153C25.5151 12.23 23.4854 11.1332 21.2702 10.8276L21.2684 10.8267Z" fill="white"/>
</svg>
